<?xml version="1.0" encoding="UTF-8" standalone="no"?>
<!DOCTYPE svg PUBLIC "-//W3C//DTD SVG 1.1//EN" "http://www.w3.org/Graphics/SVG/1.1/DTD/svg11.dtd">
<svg xmlns="http://www.w3.org/2000/svg" version="1.1" viewBox="0.00 0.00 1024.00 1024.00">
<path fill="#152f44" d="
  M 500.51 357.23
  C 494.67 351.52 489.82 345.43 486.19 338.51
  Q 480.91 328.46 478.46 316.70
  Q 477.19 310.61 477.22 302.92
  Q 477.33 279.37 477.24 256.48
  Q 477.23 254.96 476.93 253.59
  Q 476.32 250.92 476.31 250.01
  Q 476.15 241.98 476.21 234.04
  Q 476.31 220.89 484.89 211.26
  Q 487.57 208.25 491.16 206.87
  C 503.59 202.09 515.58 205.50 521.64 217.09
  C 524.11 221.81 525.22 225.64 525.23 231.13
  Q 525.31 253.77 525.23 276.40
  Q 525.23 276.48 524.81 286.60
  Q 524.53 293.47 525.22 300.87
  C 526.03 309.49 529.25 317.47 536.28 322.65
  Q 543.52 327.98 551.88 327.20
  C 559.08 326.52 566.30 323.44 572.68 319.63
  Q 577.98 316.47 582.43 314.74
  C 596.03 309.45 611.64 308.21 626.18 311.44
  C 631.50 312.63 636.25 314.85 640.85 317.55
  Q 658.32 327.82 666.74 342.05
  C 672.67 352.07 678.38 364.15 678.30 376.69
  C 678.24 385.13 679.00 393.70 677.19 401.85
  Q 674.48 414.07 670.46 422.30
  Q 658.96 445.88 638.02 460.57
  C 625.19 469.56 610.35 476.20 594.77 479.70
  C 570.29 485.20 544.86 484.72 520.23 480.05
  Q 508.98 477.91 504.38 476.79
  Q 491.46 473.64 477.01 468.66
  Q 462.45 463.66 448.00 458.84
  Q 439.03 455.84 429.08 451.93
  Q 406.63 443.10 386.23 438.17
  C 372.11 434.75 358.77 435.26 345.10 439.80
  Q 336.83 442.55 330.87 446.61
  C 322.01 452.66 316.50 459.36 310.19 467.35
  Q 307.26 471.06 302.29 473.29
  Q 289.17 479.16 277.15 471.73
  C 273.14 469.24 269.97 464.20 268.45 459.89
  C 264.30 448.16 271.22 435.62 278.61 426.92
  Q 286.33 417.83 295.53 409.99
  C 309.02 398.47 326.82 390.37 343.74 386.58
  Q 361.64 382.57 381.45 384.11
  Q 388.65 384.67 397.51 386.57
  Q 409.39 389.11 430.95 396.66
  C 433.15 397.44 435.26 398.72 437.55 399.55
  Q 447.40 403.13 460.92 408.48
  Q 471.37 412.62 494.58 419.98
  Q 504.70 423.19 514.09 424.99
  Q 521.08 426.32 528.24 427.84
  C 542.34 430.84 556.58 431.21 571.44 430.19
  C 584.46 429.30 596.36 425.92 607.27 419.54
  Q 614.68 415.21 621.20 407.71
  Q 629.26 398.41 631.01 385.87
  C 631.97 378.95 629.83 373.09 625.64 368.01
  Q 620.03 361.22 609.25 359.85
  C 604.20 359.21 598.73 361.67 594.47 364.25
  Q 585.38 369.76 576.44 373.68
  C 567.40 377.65 558.42 378.26 548.09 378.00
  C 539.89 377.79 531.34 376.50 524.08 373.18
  Q 510.48 366.98 500.51 357.23
  Z"
/>
<path fill="#152f44" d="
  M 315.03 580.80
  Q 309.10 588.50 305.70 596.66
  C 304.16 600.35 302.92 604.33 300.88 607.82
  Q 294.02 619.54 279.80 619.30
  Q 273.79 619.20 269.54 616.60
  C 262.44 612.27 257.78 606.50 257.25 597.86
  Q 256.75 589.74 259.15 583.26
  Q 267.25 561.44 278.96 546.70
  Q 284.20 540.10 292.58 532.33
  Q 302.64 523.00 314.87 515.96
  C 319.26 513.43 323.77 511.60 328.27 509.43
  Q 330.75 508.24 333.36 507.27
  Q 356.09 498.83 379.56 498.15
  Q 383.54 498.03 388.04 498.48
  C 391.88 498.86 395.68 498.84 399.42 499.36
  Q 425.29 502.91 450.15 509.50
  Q 474.67 516.01 496.67 521.81
  C 514.36 526.47 532.03 530.10 550.34 533.10
  Q 557.71 534.31 570.90 535.41
  Q 599.98 537.82 625.53 532.60
  Q 642.40 529.16 657.88 519.93
  C 668.66 513.50 678.90 503.08 685.56 492.88
  Q 689.64 486.62 694.18 475.52
  C 697.54 467.31 698.78 458.81 700.97 450.44
  C 702.17 445.85 706.06 439.89 710.07 436.89
  C 717.01 431.70 726.83 430.07 734.51 434.17
  Q 742.59 438.48 746.87 447.99
  C 749.60 454.04 748.72 460.99 747.30 467.43
  C 745.53 475.49 743.90 483.69 741.12 491.43
  Q 730.32 521.50 708.22 544.33
  Q 699.01 553.83 687.01 562.35
  Q 679.57 567.62 674.31 570.03
  C 670.66 571.69 667.52 573.48 664.03 574.88
  Q 626.95 589.74 585.76 588.93
  C 565.79 588.54 545.54 585.92 525.93 582.31
  C 517.98 580.85 509.88 578.79 501.82 577.03
  Q 496.93 575.96 492.15 574.71
  Q 475.46 570.34 458.92 565.85
  Q 451.35 563.79 444.50 562.06
  Q 427.98 557.88 411.09 553.81
  Q 405.08 552.35 392.46 550.90
  Q 355.59 546.66 328.12 568.04
  Q 319.98 574.37 315.03 580.80
  Z"
/>
<path fill="#152f44" d="
  M 461.56 662.93
  C 457.47 661.96 453.51 660.87 449.23 660.11
  Q 435.77 657.73 422.29 657.21
  Q 411.45 656.79 398.31 659.08
  Q 373.26 663.45 357.69 682.53
  C 352.88 688.43 350.28 694.07 349.32 701.24
  C 348.52 707.24 345.06 716.17 339.88 720.01
  Q 330.54 726.94 320.60 724.75
  C 308.48 722.09 300.05 710.28 301.32 697.92
  Q 301.79 693.34 302.71 689.44
  C 303.83 684.68 305.11 679.69 307.00 675.19
  Q 328.83 622.95 384.98 609.80
  C 400.12 606.25 413.41 605.96 429.25 606.10
  Q 438.22 606.17 448.22 607.68
  C 462.87 609.90 477.25 613.61 491.36 617.98
  C 502.81 621.54 514.95 626.36 526.66 630.78
  C 549.45 639.40 571.10 649.39 593.80 656.32
  Q 610.89 661.53 626.31 661.68
  Q 631.63 661.73 639.86 660.30
  C 655.11 657.65 668.97 648.55 678.51 636.73
  Q 684.35 629.50 689.48 620.23
  Q 693.63 612.73 700.52 607.75
  Q 703.00 605.96 707.62 604.72
  C 715.22 602.67 724.14 605.58 729.22 610.90
  Q 737.80 619.88 736.44 631.30
  Q 735.95 635.40 734.49 639.52
  Q 732.75 644.43 730.84 647.80
  C 728.73 651.51 726.95 655.38 724.60 658.89
  Q 712.97 676.26 699.22 687.13
  Q 675.59 705.80 645.18 710.86
  C 634.30 712.66 622.44 712.40 611.05 711.82
  Q 603.86 711.46 593.91 709.02
  Q 574.13 704.19 556.06 697.01
  Q 531.63 687.30 509.43 678.60
  Q 505.21 676.95 500.91 675.55
  C 497.06 674.29 493.22 672.58 489.43 671.37
  Q 480.38 668.49 470.73 665.45
  Q 466.21 664.03 461.56 662.93
  Z"
/>
<path fill="#152f44" d="
  M 517.50 724.59
  C 521.78 729.22 524.86 734.36 524.89 740.64
  Q 525.01 761.71 525.04 793.48
  C 525.05 801.17 523.38 806.93 518.69 813.03
  C 510.50 823.68 498.03 823.92 487.34 817.09
  C 484.57 815.31 482.75 812.34 481.03 809.55
  Q 476.74 802.60 476.79 795.39
  Q 477.01 765.94 476.77 745.32
  C 476.66 735.25 480.63 725.17 489.62 720.31
  C 493.15 718.41 499.70 716.79 503.95 717.75
  C 508.89 718.85 514.10 720.92 517.50 724.59
  Z"
/>
</svg>
